<svg width="16" height="16" viewBox="0 0 16 16" fill="none" xmlns="http://www.w3.org/2000/svg">
<path d="M1.52344 8C1.52344 4.42888 4.42888 1.52344 8 1.52344C11.5711 1.52344 14.4766 4.42888 14.4766 8C14.4766 11.5711 11.5711 14.4766 8 14.4766C4.42888 14.4766 1.52344 11.5711 1.52344 8ZM8.52344 10.5V8.52344H10.5C10.6388 8.52344 10.772 8.46829 10.8701 8.37013C10.9683 8.27196 11.0234 8.13882 11.0234 8C11.0234 7.86118 10.9683 7.72804 10.8701 7.62987C10.772 7.53171 10.6388 7.47656 10.5 7.47656H8.52344V5.5C8.52344 5.36118 8.46829 5.22804 8.37013 5.12987C8.27196 5.03171 8.13882 4.97656 8 4.97656C7.86118 4.97656 7.72804 5.03171 7.62987 5.12987C7.53171 5.22804 7.47656 5.36118 7.47656 5.5V7.47656H5.5C5.36118 7.47656 5.22804 7.53171 5.12987 7.62987C5.03171 7.72804 4.97656 7.86118 4.97656 8C4.97656 8.13882 5.03171 8.27196 5.12987 8.37013C5.22804 8.46829 5.36118 8.52344 5.5 8.52344H7.47656V10.5C7.47656 10.6388 7.53171 10.772 7.62987 10.8701C7.72804 10.9683 7.86118 11.0234 8 11.0234C8.13882 11.0234 8.27196 10.9683 8.37013 10.8701C8.46829 10.772 8.52344 10.6388 8.52344 10.5Z" fill="black" stroke="#4C4850" stroke-width="0.046875"/>
</svg>
