<svg width="24" height="24" viewBox="0 0 24 24" fill="none" xmlns="http://www.w3.org/2000/svg">
<g clip-path="url(#clip0_326_15838)">
<path d="M17.2499 6.00025H17.2541H17.2499ZM22.4788 4.50025H18.2104L18.6285 2.82868L20.4248 2.21697C20.8068 2.08712 21.0342 1.68118 20.924 1.29306C20.896 1.19542 20.8484 1.1045 20.7842 1.0258C20.72 0.947105 20.6404 0.882273 20.5504 0.83524C20.4603 0.788207 20.3617 0.759954 20.2604 0.752192C20.1591 0.744431 20.0573 0.757325 19.9612 0.790091L17.7581 1.54009C17.6394 1.58055 17.5328 1.6501 17.448 1.74238C17.3631 1.83467 17.3028 1.94675 17.2724 2.06837L16.6645 4.50025H10.521C10.1174 4.50025 9.77103 4.81056 9.75087 5.21415C9.74598 5.31556 9.76174 5.4169 9.79717 5.51204C9.83261 5.60718 9.887 5.69413 9.95704 5.76763C10.0271 5.84113 10.1113 5.89965 10.2046 5.93963C10.2979 5.97962 10.3984 6.00024 10.4999 6.00025H10.6288L10.6757 6.40618C10.6868 6.50098 10.7323 6.58842 10.8036 6.65186C10.8749 6.7153 10.967 6.75031 11.0624 6.75025C12.8906 6.75025 14.5152 7.26118 15.7556 8.22775C16.4454 8.7593 17.0047 9.44152 17.3906 10.2223C17.6066 10.6614 17.766 11.1263 17.8649 11.6056C17.8846 11.699 17.94 11.781 18.0191 11.8343C18.6568 12.267 19.1272 12.9048 19.3522 13.6419C19.5771 14.3789 19.5431 15.1707 19.2557 15.8857C19.2223 15.9685 19.2198 16.0605 19.2487 16.1449C19.4147 16.6208 19.4997 17.1212 19.4999 17.6252C19.4999 18.6724 19.1437 19.6704 18.4968 20.4354C18.1301 20.872 17.6687 21.2194 17.1477 21.4512C17.0576 21.4909 16.9867 21.5645 16.9504 21.656C16.7557 22.1632 16.4808 22.6358 16.1362 23.0557C16.1218 23.0728 16.1126 23.0935 16.1097 23.1156C16.1067 23.1377 16.1101 23.1601 16.1195 23.1804C16.1288 23.2006 16.1437 23.2177 16.1625 23.2298C16.1812 23.2418 16.203 23.2483 16.2252 23.2484H18.532C19.0967 23.2461 19.6402 23.0324 20.0553 22.6495C20.4704 22.2665 20.7271 21.7421 20.7749 21.1793L22.3781 6.00025H22.4999C22.6015 6.00036 22.7021 5.97984 22.7955 5.93991C22.889 5.89998 22.9733 5.84149 23.0434 5.76797C23.1136 5.69446 23.168 5.60746 23.2035 5.51226C23.239 5.41706 23.2548 5.31564 23.2499 5.21415C23.2302 4.81056 22.8824 4.50025 22.4788 4.50025Z" fill="#112211"/>
<path d="M5.09484 15C5.24277 14.9993 5.38936 15.0279 5.52614 15.0843C5.66292 15.1406 5.78718 15.2235 5.89172 15.3281L6.61875 16.0552C6.63616 16.0726 6.65684 16.0864 6.67961 16.0959C6.70237 16.1053 6.72677 16.1101 6.75141 16.1101C6.77605 16.1101 6.80045 16.1053 6.82321 16.0959C6.84597 16.0864 6.86665 16.0726 6.88406 16.0552L7.60969 15.3281C7.71423 15.2235 7.83849 15.1406 7.97527 15.0843C8.11205 15.0279 8.25864 14.9993 8.40656 15H17.6213C17.6705 15.0005 17.7194 14.9913 17.765 14.9729C17.8107 14.9545 17.8523 14.9273 17.8875 14.8928C17.9227 14.8583 17.9507 14.8173 17.97 14.772C17.9893 14.7267 17.9995 14.678 18 14.6287V14.625C17.9995 14.1929 17.85 13.7742 17.5768 13.4395C17.3035 13.1048 16.9232 12.8745 16.5 12.7875C16.4616 11.3958 15.8906 10.2309 14.8355 9.4125C13.8595 8.65125 12.5555 8.25 11.0625 8.25H7.6875C4.48969 8.25 2.32359 10.0673 2.25 12.7875C1.82677 12.8745 1.44649 13.1048 1.17325 13.4395C0.90001 13.7742 0.750528 14.1929 0.75 14.625C0.75 14.7245 0.789509 14.8198 0.859835 14.8902C0.930161 14.9605 1.02554 15 1.125 15H5.09484ZM8.71594 16.5C8.66668 16.5 8.61789 16.5096 8.57237 16.5284C8.52685 16.5473 8.48548 16.5749 8.45063 16.6097L7.41281 17.648C7.23701 17.8237 6.99859 17.9225 6.75 17.9225C6.50141 17.9225 6.263 17.8237 6.08719 17.648L5.04938 16.6097C5.01452 16.5749 4.97315 16.5473 4.92763 16.5284C4.88211 16.5096 4.83332 16.5 4.78406 16.5H1.53094C1.35476 16.4992 1.18398 16.5608 1.04879 16.6737C0.913601 16.7867 0.82271 16.9438 0.792188 17.1173C0.764027 17.2851 0.749916 17.4549 0.75 17.625C0.75 19.0589 1.74047 20.227 2.96531 20.25C3.07922 20.9587 3.35484 21.5991 3.76969 22.1002C4.38328 22.8413 5.27531 23.25 6.28125 23.25H12.4688C13.4747 23.25 14.3667 22.8413 14.9803 22.0992C15.3952 21.5981 15.6708 20.9578 15.7847 20.2491C17.0095 20.227 18 19.0589 18 17.6241C18.0001 17.454 17.986 17.2842 17.9578 17.1164C17.9271 16.9431 17.8361 16.7861 17.7009 16.6734C17.5658 16.5606 17.3951 16.4992 17.2191 16.5H8.71594Z" fill="#112211"/>
</g>
<defs>
<clipPath id="clip0_326_15838">
<rect width="24" height="24" fill="white"/>
</clipPath>
</defs>
</svg>
