<svg width="18" height="15" viewBox="0 0 18 15" fill="none" xmlns="http://www.w3.org/2000/svg">
<rect width="18" height="15" fill="#383838"/>
<rect x="-4237" y="-9608" width="5873" height="11743" fill="#C9ADA7"/>
<g clip-path="url(#clip0_9_569)">
<rect width="1440" height="1881" transform="translate(-583 -537)" fill="#FAFBFC"/>
<g filter="url(#filter0_d_9_569)">
<path d="M-39 -218H741C747.627 -218 753 -212.627 753 -206V43.5C753 50.1274 747.627 55.5 741 55.5H-39V-218Z" fill="white"/>
<rect x="-14.5" y="-16" width="47" height="47" rx="3.5" stroke="#8DD3BB"/>
<mask id="path-4-inside-1_9_569" fill="white">
<path d="M9.00043 15C8.74954 14.9997 8.50454 14.9239 8.29731 14.7824C5.22739 12.6984 3.89809 11.2695 3.16489 10.3762C1.60239 8.47188 0.85434 6.5168 0.875434 4.39961C0.900043 1.97344 2.84653 0 5.2145 0C6.93637 0 8.12895 0.969922 8.82348 1.77773C8.84548 1.80307 8.87267 1.82338 8.90319 1.8373C8.93372 1.85122 8.96688 1.85842 9.00043 1.85842C9.03399 1.85842 9.06715 1.85122 9.09768 1.8373C9.1282 1.82338 9.15539 1.80307 9.17739 1.77773C9.87192 0.969141 11.0645 0 12.7864 0C15.1543 0 17.1008 1.97344 17.1254 4.4C17.1465 6.51758 16.3977 8.47266 14.836 10.3766C14.1028 11.2699 12.7735 12.6988 9.70356 14.7828C9.49629 14.9241 9.25129 14.9998 9.00043 15V15Z"/>
</mask>
<path d="M9.00043 15C8.74954 14.9997 8.50454 14.9239 8.29731 14.7824C5.22739 12.6984 3.89809 11.2695 3.16489 10.3762C1.60239 8.47188 0.85434 6.5168 0.875434 4.39961C0.900043 1.97344 2.84653 0 5.2145 0C6.93637 0 8.12895 0.969922 8.82348 1.77773C8.84548 1.80307 8.87267 1.82338 8.90319 1.8373C8.93372 1.85122 8.96688 1.85842 9.00043 1.85842C9.03399 1.85842 9.06715 1.85122 9.09768 1.8373C9.1282 1.82338 9.15539 1.80307 9.17739 1.77773C9.87192 0.969141 11.0645 0 12.7864 0C15.1543 0 17.1008 1.97344 17.1254 4.4C17.1465 6.51758 16.3977 8.47266 14.836 10.3766C14.1028 11.2699 12.7735 12.6988 9.70356 14.7828C9.49629 14.9241 9.25129 14.9998 9.00043 15V15Z" fill="#FF8682" stroke="#4C4850" stroke-width="0.09375" mask="url(#path-4-inside-1_9_569)"/>
</g>
</g>
<defs>
<filter id="filter0_d_9_569" x="-495" y="-230" width="1264" height="305.5" filterUnits="userSpaceOnUse" color-interpolation-filters="sRGB">
<feFlood flood-opacity="0" result="BackgroundImageFix"/>
<feColorMatrix in="SourceAlpha" type="matrix" values="0 0 0 0 0 0 0 0 0 0 0 0 0 0 0 0 0 0 127 0" result="hardAlpha"/>
<feOffset dy="4"/>
<feGaussianBlur stdDeviation="8"/>
<feComposite in2="hardAlpha" operator="out"/>
<feColorMatrix type="matrix" values="0 0 0 0 0.0666667 0 0 0 0 0.133333 0 0 0 0 0.0666667 0 0 0 0.05 0"/>
<feBlend mode="normal" in2="BackgroundImageFix" result="effect1_dropShadow_9_569"/>
<feBlend mode="normal" in="SourceGraphic" in2="effect1_dropShadow_9_569" result="shape"/>
</filter>
<clipPath id="clip0_9_569">
<rect width="1440" height="1881" fill="white" transform="translate(-583 -537)"/>
</clipPath>
</defs>
</svg>
