<svg width="20" height="21" viewBox="0 0 20 21" fill="none" xmlns="http://www.w3.org/2000/svg">
<path d="M10.0004 18L10.0005 17.9766C9.75427 17.9763 9.51386 17.9019 9.31052 17.7631L9.31047 17.763C6.24227 15.6802 4.91467 14.2528 4.183 13.3613C2.6234 11.4605 1.87784 9.51066 1.89887 7.39984C1.92335 4.986 3.8599 3.02344 6.2145 3.02344C7.92677 3.02344 9.11343 3.98782 9.80571 4.79301L9.80579 4.7931C9.82999 4.82097 9.85989 4.84331 9.89347 4.85862C9.92705 4.87394 9.96353 4.88186 10.0004 4.88186C10.0373 4.88186 10.0738 4.87394 10.1074 4.85862C10.141 4.84331 10.1709 4.82097 10.1951 4.7931L10.1952 4.79301C10.8874 3.98705 12.0741 3.02344 13.7864 3.02344C16.141 3.02344 18.0775 4.98599 18.102 7.40024C18.123 9.51144 17.3767 11.4613 15.8179 13.3617C15.0862 14.2532 13.7586 15.6806 10.6904 17.7634L10.6904 17.7634C10.487 17.9021 10.2466 17.9764 10.0004 17.9766L10.0004 18ZM10.0004 18C10.2513 17.9998 10.4963 17.9241 10.7036 17.7828L9.82348 4.77773C9.12895 3.96992 7.93637 3 6.2145 3C3.84653 3 1.90004 4.97344 1.87543 7.39961C1.85434 9.5168 2.60239 11.4719 4.16489 13.3762C4.89809 14.2695 6.22739 15.6984 9.29731 17.7824C9.50454 17.9239 9.74954 17.9997 10.0004 18Z" fill="black" stroke="#4C4850" stroke-width="0.046875"/>
</svg>
