<svg width="82" height="34" viewBox="0 0 82 34" fill="none" xmlns="http://www.w3.org/2000/svg">
<path d="M81.3385 13.1872C81.3385 18.2636 77.8716 22.3744 72.1517 22.3744C66.4319 22.3744 63 18.2636 63 13.1872C63 8.14588 66.502 4 72.1167 4C77.7314 4 81.3385 8.14588 81.3385 13.1872ZM67.3592 13.1872C67.3592 15.8672 68.9684 18.372 72.1485 18.372C75.3287 18.372 76.9379 15.8704 76.9379 13.1872C76.9379 10.5423 75.0802 7.96742 72.1485 7.96742C69.0034 7.96742 67.3592 10.5423 67.3592 13.1872Z" fill="white"/>
<path fill-rule="evenodd" clip-rule="evenodd" d="M39.5604 7.88655C38.1467 4.93702 35.1995 2.9043 31.268 2.9043C25.6534 2.9043 22.1514 7.05018 22.1514 12.0915C22.1514 15.31 23.5309 18.1404 25.9984 19.781C26.139 19.6758 26.2237 19.6075 26.2237 19.6075C27.4545 18.8044 28.6551 17.9591 29.8236 17.0733C27.6222 16.4254 26.5105 14.319 26.5105 12.0915C26.5105 9.44656 28.158 6.87172 31.2999 6.87172C34.0668 6.87172 35.8771 9.16538 36.0718 11.6468C37.2847 10.4431 38.4486 9.18878 39.5604 7.88655ZM30.858 21.2703C34.3397 18.8025 37.5589 15.9834 40.463 12.8598C40.1306 17.5763 36.7314 21.2787 31.3031 21.2787C31.1531 21.2787 31.0048 21.2759 30.858 21.2703Z" fill="#8DD3BB"/>
<path d="M43.1158 0.43415C38.661 -1.20381 35.4585 2.32067 35.4585 2.32067L38.4953 4.08609C39.6329 3.43282 40.1395 4.06697 40.2702 4.41432C40.3626 4.6597 40.2383 4.92738 40.1395 5.07397L39.4003 6.00766C35.4107 10.8196 30.7201 15.0005 25.4847 18.4166C25.4847 18.4166 23.9041 19.6913 23.0629 19.7104C22.3555 19.7264 22.04 19.1304 22.6359 18.2764L21.1701 14.9686C21.1701 14.9686 17.3558 17.467 18.0951 21.8582C18.4074 23.7129 20.1504 25.0322 22.0018 24.6976C22.9482 24.5287 24.1176 24.0666 25.5484 23.1202L28.1805 21.3994C33.416 17.9769 38.1097 13.7832 42.0961 8.96491L43.0011 7.87188C44.3649 6.31996 44.9767 5.0421 45.1838 4.03192C45.5025 2.48638 44.5879 0.975886 43.1158 0.43415Z" fill="#8DD3BB"/>
<path d="M14.7282 3L17.9466 5.43144L15.9805 7.93299C17.3379 9.46897 17.8382 11.2217 17.8382 13.1528C17.8382 15.3325 17.0161 18.4076 14.1195 19.7301C17.0512 21.196 17.7649 23.3056 17.7649 25.5586C17.7649 30.4214 14.0463 33.4233 8.93505 33.4233C3.82384 33.4233 0 30.3131 0 25.5586H4.32413C4.32413 27.8466 6.43362 29.3475 8.93505 29.3475C11.4365 29.3475 13.4026 27.99 13.4026 25.5586C13.4026 23.1271 11.1146 22.0181 8.93505 22.0181C3.4319 22.0181 0 18.6594 0 13.1528C0 7.64619 4.00229 4.21413 8.93823 4.21413C10.3339 4.21413 11.7615 4.39258 12.9788 5.21475L14.7282 3ZM4.32413 13.1528C4.32413 16.2279 6.39857 18.0507 8.93505 18.0507C11.4365 18.0507 13.5109 16.1929 13.5109 13.1528C13.5109 10.1127 11.4397 8.18474 8.93823 8.18474C6.39856 8.18474 4.32413 10.0776 4.32413 13.1528Z" fill="white"/>
<path d="M58.7282 3L61.9466 5.43144L59.9805 7.93299C61.3379 9.46897 61.8382 11.2217 61.8382 13.1528C61.8382 15.3325 61.0161 18.4076 58.1195 19.7301C61.0512 21.196 61.7649 23.3056 61.7649 25.5586C61.7649 30.4214 58.0463 33.4233 52.935 33.4233C47.8238 33.4233 44 30.3131 44 25.5586H48.3241C48.3241 27.8466 50.4336 29.3475 52.935 29.3475C55.4365 29.3475 57.4026 27.99 57.4026 25.5586C57.4026 23.1271 55.1146 22.0181 52.935 22.0181C47.4319 22.0181 44 18.6594 44 13.1528C44 7.64619 48.0023 4.21413 52.9382 4.21413C54.3339 4.21413 55.7615 4.39258 56.9788 5.21475L58.7282 3ZM48.3241 13.1528C48.3241 16.2279 50.3986 18.0507 52.935 18.0507C55.4365 18.0507 57.5109 16.1929 57.5109 13.1528C57.5109 10.1127 55.4397 8.18474 52.9382 8.18474C50.3986 8.18474 48.3241 10.0776 48.3241 13.1528Z" fill="white"/>
</svg>
