<svg width="14" height="14" viewBox="0 0 14 14" fill="none" xmlns="http://www.w3.org/2000/svg">
<mask id="path-1-inside-1_796_8512" fill="white">
<path d="M13.7811 0.220587C13.6788 0.118363 13.5492 0.0478714 13.4078 0.0175997C13.2665 -0.0126719 13.1193 -0.0014336 12.9842 0.0499618L0.483266 4.78152H0.480766C0.336629 4.83696 0.213118 4.93554 0.127104 5.0638C0.0410898 5.19206 -0.00323491 5.34374 0.000183888 5.49814C0.00360268 5.65253 0.0545983 5.8021 0.146206 5.92643C0.237813 6.05076 0.365566 6.14377 0.512016 6.19277L0.524828 6.19684L4.81545 8.02903C4.89914 8.05443 4.98803 8.05744 5.07324 8.03775C5.15846 8.01807 5.23701 7.97637 5.30108 7.91684L12.1873 1.50027C12.2078 1.47976 12.2322 1.46348 12.259 1.45237C12.2858 1.44127 12.3146 1.43555 12.3436 1.43555C12.3726 1.43555 12.4013 1.44127 12.4281 1.45237C12.455 1.46348 12.4793 1.47976 12.4998 1.50027C12.5203 1.52079 12.5366 1.54515 12.5477 1.57196C12.5588 1.59877 12.5645 1.62751 12.5645 1.65652C12.5645 1.68554 12.5588 1.71428 12.5477 1.74109C12.5366 1.7679 12.5203 1.79226 12.4998 1.81277L6.08295 8.6959C6.02342 8.75996 5.98172 8.83852 5.96204 8.92374C5.94235 9.00895 5.94536 9.09784 5.97077 9.18152L7.80358 13.4746C7.80545 13.4809 7.80733 13.4865 7.80952 13.4925C7.90952 13.7821 8.16264 13.9865 8.46858 14.0003H8.49983C8.65428 14.0012 8.80542 13.9556 8.9336 13.8694C9.06178 13.7832 9.16108 13.6605 9.21858 13.5171L13.9495 1.01965C14.0016 0.884424 14.0135 0.736992 13.9836 0.595184C13.9537 0.453375 13.8834 0.323264 13.7811 0.220587V0.220587Z"/>
</mask>
<path d="M13.7811 0.220587C13.6788 0.118363 13.5492 0.0478714 13.4078 0.0175997C13.2665 -0.0126719 13.1193 -0.0014336 12.9842 0.0499618L0.483266 4.78152H0.480766C0.336629 4.83696 0.213118 4.93554 0.127104 5.0638C0.0410898 5.19206 -0.00323491 5.34374 0.000183888 5.49814C0.00360268 5.65253 0.0545983 5.8021 0.146206 5.92643C0.237813 6.05076 0.365566 6.14377 0.512016 6.19277L0.524828 6.19684L4.81545 8.02903C4.89914 8.05443 4.98803 8.05744 5.07324 8.03775C5.15846 8.01807 5.23701 7.97637 5.30108 7.91684L12.1873 1.50027C12.2078 1.47976 12.2322 1.46348 12.259 1.45237C12.2858 1.44127 12.3146 1.43555 12.3436 1.43555C12.3726 1.43555 12.4013 1.44127 12.4281 1.45237C12.455 1.46348 12.4793 1.47976 12.4998 1.50027C12.5203 1.52079 12.5366 1.54515 12.5477 1.57196C12.5588 1.59877 12.5645 1.62751 12.5645 1.65652C12.5645 1.68554 12.5588 1.71428 12.5477 1.74109C12.5366 1.7679 12.5203 1.79226 12.4998 1.81277L6.08295 8.6959C6.02342 8.75996 5.98172 8.83852 5.96204 8.92374C5.94235 9.00895 5.94536 9.09784 5.97077 9.18152L7.80358 13.4746C7.80545 13.4809 7.80733 13.4865 7.80952 13.4925C7.90952 13.7821 8.16264 13.9865 8.46858 14.0003H8.49983C8.65428 14.0012 8.80542 13.9556 8.9336 13.8694C9.06178 13.7832 9.16108 13.6605 9.21858 13.5171L13.9495 1.01965C14.0016 0.884424 14.0135 0.736992 13.9836 0.595184C13.9537 0.453375 13.8834 0.323264 13.7811 0.220587V0.220587Z" fill="black" stroke="#112211" stroke-width="0.09375" mask="url(#path-1-inside-1_796_8512)"/>
</svg>
