<svg width="22" height="22" viewBox="0 0 22 22" fill="none" xmlns="http://www.w3.org/2000/svg">
<path d="M6.95783 4.95854C6.24283 4.24354 6.24283 3.07938 6.95783 2.36438C7.67283 1.64937 8.83699 1.64937 9.55199 2.36438C10.267 3.07938 10.267 4.24354 9.55199 4.95854C8.82783 5.68271 7.67283 5.68271 6.95783 4.95854ZM5.50033 14.666V7.33271C5.50033 6.82854 5.08783 6.41604 4.58366 6.41604C4.07949 6.41604 3.66699 6.82854 3.66699 7.33271V14.666C3.66699 17.196 5.72033 19.2494 8.25033 19.2494H12.8337C13.3378 19.2494 13.7503 18.8369 13.7503 18.3327C13.7503 17.8285 13.3378 17.416 12.8337 17.416H8.25033C6.72866 17.416 5.50033 16.1877 5.50033 14.666ZM17.6737 17.7369L14.2178 14.281C13.8787 13.9419 13.4112 13.7494 12.9253 13.7494H10.542V10.376C11.5412 11.1919 12.9803 11.9344 14.392 12.2277C15.0062 12.356 15.5837 11.8977 15.5837 11.2744C15.5837 10.7885 15.2262 10.3944 14.7403 10.3119C13.4387 10.0919 12.1003 9.38604 11.3028 8.50604L10.0195 7.08521C9.84533 6.89271 9.62533 6.73688 9.38699 6.62688C9.12116 6.49854 8.81866 6.41604 8.50699 6.41604H8.47949C7.34283 6.41604 6.41699 7.34188 6.41699 8.47854V13.7494C6.41699 15.271 7.64533 16.4994 9.16699 16.4994H13.8145L16.3628 19.0477C16.7203 19.4052 17.3162 19.4052 17.6737 19.0477C18.0403 18.6902 18.0403 18.1035 17.6737 17.7369Z" fill="#8DD3BB"/>
</svg>
