<svg width="32" height="32" viewBox="0 0 32 32" fill="none" xmlns="http://www.w3.org/2000/svg">
<rect width="32" height="32" rx="4" fill="#EBF6F2"/>
<path d="M11.9568 9.95952C11.2418 9.24452 11.2418 8.08035 11.9568 7.36535C12.6718 6.65035 13.836 6.65035 14.551 7.36535C15.266 8.08035 15.266 9.24452 14.551 9.95952C13.8268 10.6837 12.6718 10.6837 11.9568 9.95952ZM10.4993 19.667V12.3337C10.4993 11.8295 10.0868 11.417 9.58268 11.417C9.07852 11.417 8.66602 11.8295 8.66602 12.3337V19.667C8.66602 22.197 10.7193 24.2504 13.2493 24.2504H17.8327C18.3368 24.2504 18.7493 23.8379 18.7493 23.3337C18.7493 22.8295 18.3368 22.417 17.8327 22.417H13.2493C11.7277 22.417 10.4993 21.1887 10.4993 19.667ZM22.6727 22.7379L19.2168 19.282C18.8777 18.9429 18.4102 18.7504 17.9243 18.7504H15.541V15.377C16.5402 16.1929 17.9793 16.9354 19.391 17.2287C20.0052 17.357 20.5827 16.8987 20.5827 16.2754C20.5827 15.7895 20.2252 15.3954 19.7393 15.3129C18.4377 15.0929 17.0993 14.387 16.3018 13.507L15.0185 12.0862C14.8443 11.8937 14.6243 11.7379 14.386 11.6279C14.1202 11.4995 13.8177 11.417 13.506 11.417H13.4785C12.3418 11.417 11.416 12.3429 11.416 13.4795V18.7504C11.416 20.272 12.6443 21.5004 14.166 21.5004H18.8135L21.3618 24.0487C21.7193 24.4062 22.3152 24.4062 22.6727 24.0487C23.0393 23.6912 23.0393 23.1045 22.6727 22.7379Z" fill="#8DD3BB"/>
</svg>
