<svg width="24" height="24" viewBox="0 0 24 24" fill="none" xmlns="http://www.w3.org/2000/svg">
<path d="M7.59 5.40914C6.81 4.62914 6.81 3.35914 7.59 2.57914C8.37 1.79914 9.64 1.79914 10.42 2.57914C11.2 3.35914 11.2 4.62914 10.42 5.40914C9.63 6.19914 8.37 6.19914 7.59 5.40914ZM6 15.9991V7.99914C6 7.44914 5.55 6.99914 5 6.99914C4.45 6.99914 4 7.44914 4 7.99914V15.9991C4 18.7591 6.24 20.9991 9 20.9991H14C14.55 20.9991 15 20.5491 15 19.9991C15 19.4491 14.55 18.9991 14 18.9991H9C7.34 18.9991 6 17.6591 6 15.9991ZM19.28 19.3491L15.51 15.5791C15.14 15.2091 14.63 14.9991 14.1 14.9991H11.5V11.3191C12.59 12.2091 14.16 13.0191 15.7 13.3391C16.37 13.4791 17 12.9791 17 12.2991C17 11.7691 16.61 11.3391 16.08 11.2491C14.66 11.0091 13.2 10.2391 12.33 9.27914L10.93 7.72914C10.74 7.51914 10.5 7.34914 10.24 7.22914C9.95 7.08914 9.62 6.99914 9.28 6.99914H9.25C8.01 6.99914 7 8.00914 7 9.24914V14.9991C7 16.6591 8.34 17.9991 10 17.9991H15.07L17.85 20.7791C18.24 21.1691 18.89 21.1691 19.28 20.7791C19.68 20.3891 19.68 19.7491 19.28 19.3491Z" fill="#112211"/>
</svg>
