<svg width="20" height="20" viewBox="0 0 20 20" fill="none" xmlns="http://www.w3.org/2000/svg">
<path d="M13.1866 13.9146L13.2024 13.9236L13.215 13.9104C13.4455 13.6693 13.7225 13.4775 14.0292 13.3465C14.336 13.2155 14.6661 13.148 14.9996 13.1481C15.5168 13.1481 16.0211 13.31 16.4417 13.6111C16.8622 13.9123 17.1779 14.3375 17.3445 14.8272C17.511 15.3169 17.5201 15.8464 17.3704 16.3415C17.2206 16.8366 16.9197 17.2724 16.5097 17.5878C16.0997 17.9031 15.6012 18.0822 15.0843 18.0998C14.5673 18.1174 14.0578 17.9728 13.6273 17.6861C13.1968 17.3995 12.8668 16.9852 12.6837 16.5015C12.5005 16.0177 12.4735 15.4888 12.6062 14.9889L12.6109 14.9714L12.5951 14.9625L6.81383 11.7097L6.798 11.7008L6.78543 11.7139C6.44333 12.0706 6.00234 12.3168 5.51918 12.4208C5.03602 12.5248 4.5328 12.4818 4.07425 12.2975C3.6157 12.1131 3.22279 11.7958 2.94607 11.3863C2.66935 10.9768 2.52148 10.4939 2.52148 9.99968C2.52148 9.50546 2.66935 9.02254 2.94607 8.61304C3.22279 8.20355 3.6157 7.88622 4.07425 7.70186C4.5328 7.51751 5.03602 7.47457 5.51918 7.57857C6.00234 7.68257 6.44333 7.92874 6.78543 8.28543L6.798 8.29855L6.81383 8.28964L12.5951 5.0369L12.6109 5.028L12.6062 5.01044C12.4516 4.42998 12.5139 3.81306 12.7815 3.27525C13.0491 2.73745 13.5036 2.31566 14.0599 2.0889C14.6161 1.86214 15.236 1.84598 15.8033 2.04344C16.3706 2.2409 16.8465 2.63843 17.1418 3.16156C17.437 3.68469 17.5314 4.29752 17.4073 4.88525C17.2831 5.47298 16.9489 5.99528 16.4673 6.3543C15.9857 6.71332 15.3897 6.88443 14.791 6.83557C14.1923 6.78671 13.6319 6.52123 13.2149 6.08888L13.2023 6.07584L13.1866 6.08472L7.4053 9.33746L7.38947 9.34636L7.39415 9.36391C7.50508 9.7805 7.50508 10.2189 7.39415 10.6354L7.38947 10.653L7.4053 10.6619L13.1866 13.9146Z" fill="black" stroke="#112211" stroke-width="0.046875"/>
</svg>
