<svg width="16" height="16" viewBox="0 0 16 16" fill="none" xmlns="http://www.w3.org/2000/svg">
<mask id="path-1-inside-1_413_4313" fill="white">
<path d="M14.7811 1.22059C14.6788 1.11836 14.5492 1.04787 14.4078 1.0176C14.2665 0.987328 14.1193 0.998566 13.9842 1.04996L1.48327 5.78152H1.48077C1.33663 5.83696 1.21312 5.93554 1.1271 6.0638C1.04109 6.19206 0.996765 6.34374 1.00018 6.49814C1.0036 6.65253 1.0546 6.8021 1.14621 6.92643C1.23781 7.05076 1.36557 7.14377 1.51202 7.19277L1.52483 7.19684L5.81545 9.02903C5.89914 9.05443 5.98803 9.05744 6.07324 9.03775C6.15846 9.01807 6.23701 8.97637 6.30108 8.91684L13.1873 2.50027C13.2078 2.47976 13.2322 2.46348 13.259 2.45237C13.2858 2.44127 13.3146 2.43555 13.3436 2.43555C13.3726 2.43555 13.4013 2.44127 13.4281 2.45237C13.455 2.46348 13.4793 2.47976 13.4998 2.50027C13.5203 2.52079 13.5366 2.54515 13.5477 2.57196C13.5588 2.59877 13.5645 2.62751 13.5645 2.65652C13.5645 2.68554 13.5588 2.71428 13.5477 2.74109C13.5366 2.7679 13.5203 2.79226 13.4998 2.81277L7.08295 9.6959C7.02342 9.75996 6.98172 9.83852 6.96204 9.92374C6.94235 10.009 6.94536 10.0978 6.97077 10.1815L8.80358 14.4746C8.80545 14.4809 8.80733 14.4865 8.80952 14.4925C8.90952 14.7821 9.16264 14.9865 9.46858 15.0003H9.49983C9.65428 15.0012 9.80542 14.9556 9.9336 14.8694C10.0618 14.7832 10.1611 14.6605 10.2186 14.5171L14.9495 2.01965C15.0016 1.88442 15.0135 1.73699 14.9836 1.59518C14.9537 1.45338 14.8834 1.32326 14.7811 1.22059V1.22059Z"/>
</mask>
<path d="M14.7811 1.22059C14.6788 1.11836 14.5492 1.04787 14.4078 1.0176C14.2665 0.987328 14.1193 0.998566 13.9842 1.04996L1.48327 5.78152H1.48077C1.33663 5.83696 1.21312 5.93554 1.1271 6.0638C1.04109 6.19206 0.996765 6.34374 1.00018 6.49814C1.0036 6.65253 1.0546 6.8021 1.14621 6.92643C1.23781 7.05076 1.36557 7.14377 1.51202 7.19277L1.52483 7.19684L5.81545 9.02903C5.89914 9.05443 5.98803 9.05744 6.07324 9.03775C6.15846 9.01807 6.23701 8.97637 6.30108 8.91684L13.1873 2.50027C13.2078 2.47976 13.2322 2.46348 13.259 2.45237C13.2858 2.44127 13.3146 2.43555 13.3436 2.43555C13.3726 2.43555 13.4013 2.44127 13.4281 2.45237C13.455 2.46348 13.4793 2.47976 13.4998 2.50027C13.5203 2.52079 13.5366 2.54515 13.5477 2.57196C13.5588 2.59877 13.5645 2.62751 13.5645 2.65652C13.5645 2.68554 13.5588 2.71428 13.5477 2.74109C13.5366 2.7679 13.5203 2.79226 13.4998 2.81277L7.08295 9.6959C7.02342 9.75996 6.98172 9.83852 6.96204 9.92374C6.94235 10.009 6.94536 10.0978 6.97077 10.1815L8.80358 14.4746C8.80545 14.4809 8.80733 14.4865 8.80952 14.4925C8.90952 14.7821 9.16264 14.9865 9.46858 15.0003H9.49983C9.65428 15.0012 9.80542 14.9556 9.9336 14.8694C10.0618 14.7832 10.1611 14.6605 10.2186 14.5171L14.9495 2.01965C15.0016 1.88442 15.0135 1.73699 14.9836 1.59518C14.9537 1.45338 14.8834 1.32326 14.7811 1.22059V1.22059Z" fill="black" stroke="#112211" stroke-width="0.09375" mask="url(#path-1-inside-1_413_4313)"/>
</svg>
