<svg width="24" height="22" viewBox="0 0 24 22" fill="none" xmlns="http://www.w3.org/2000/svg">
<path d="M18.4687 21.4997C18.3109 21.5004 18.1568 21.4511 18.0286 21.3591L12 16.9885L5.97139 21.3591C5.84259 21.4525 5.68742 21.5026 5.52832 21.502C5.36921 21.5014 5.21441 21.4502 5.08629 21.3559C4.95818 21.2615 4.86339 21.1289 4.81563 20.9771C4.76787 20.8254 4.76961 20.6623 4.82061 20.5116L7.17186 13.5474L1.07811 9.36849C0.946113 9.27807 0.846491 9.14781 0.793797 8.99675C0.741103 8.84568 0.7381 8.68172 0.785225 8.52883C0.83235 8.37593 0.927135 8.24211 1.05573 8.14692C1.18432 8.05173 1.33999 8.00016 1.49998 7.99974H9.0178L11.2865 1.01771C11.3354 0.866968 11.4308 0.735582 11.559 0.642399C11.6871 0.549216 11.8415 0.499023 12 0.499023C12.1584 0.499023 12.3128 0.549216 12.441 0.642399C12.5692 0.735582 12.6645 0.866968 12.7134 1.01771L14.9822 8.00208H22.5C22.6602 8.002 22.8162 8.05322 22.9452 8.14823C23.0741 8.24323 23.1693 8.37704 23.2167 8.53005C23.2642 8.68307 23.2613 8.84724 23.2087 8.99854C23.1561 9.14984 23.0564 9.2803 22.9242 9.37083L16.8281 13.5474L19.178 20.5097C19.216 20.6225 19.2267 20.7426 19.2092 20.8603C19.1917 20.978 19.1464 21.0898 19.0771 21.1865C19.0078 21.2832 18.9165 21.3621 18.8107 21.4165C18.7049 21.471 18.5877 21.4995 18.4687 21.4997Z" fill="#FFC107"/>
</svg>
