<svg width="20" height="21" viewBox="0 0 20 21" fill="none" xmlns="http://www.w3.org/2000/svg">
<path d="M19.7029 4.26015C19.0071 4.56848 18.2596 4.77681 17.4737 4.87098C18.2846 4.38581 18.8912 3.6222 19.1804 2.72265C18.4186 3.17514 17.5849 3.49364 16.7154 3.66431C16.1307 3.04003 15.3563 2.62625 14.5124 2.48721C13.6684 2.34816 12.8022 2.49164 12.0481 2.89536C11.2941 3.29907 10.6944 3.94045 10.3422 4.7199C9.99003 5.49935 9.90503 6.37327 10.1004 7.20598C8.55682 7.12848 7.04677 6.72727 5.66827 6.0284C4.28977 5.32953 3.07362 4.34861 2.09875 3.14931C1.76542 3.72431 1.57375 4.39098 1.57375 5.10098C1.57338 5.74014 1.73078 6.36951 2.03198 6.93326C2.33319 7.497 2.76888 7.97768 3.30042 8.33265C2.68398 8.31303 2.08114 8.14647 1.54208 7.84681V7.89681C1.54202 8.79326 1.85211 9.66213 2.41974 10.356C2.98736 11.0498 3.77756 11.5259 4.65625 11.7035C4.0844 11.8582 3.48486 11.881 2.90292 11.7701C3.15083 12.5415 3.63375 13.216 4.28406 13.6993C4.93437 14.1825 5.71951 14.4503 6.52958 14.4651C5.15444 15.5447 3.45616 16.1302 1.70792 16.1276C1.39823 16.1277 1.08881 16.1096 0.78125 16.0735C2.55581 17.2145 4.62153 17.82 6.73125 17.8176C13.8729 17.8176 17.7771 11.9026 17.7771 6.77265C17.7771 6.60598 17.7729 6.43765 17.7654 6.27098C18.5248 5.72179 19.1803 5.04173 19.7013 4.26265L19.7029 4.26015Z" fill="#112211"/>
</svg>
