<svg width="16" height="16" viewBox="0 0 16 16" fill="none" xmlns="http://www.w3.org/2000/svg">
<path d="M14.8019 6.5632L14.7879 6.58204C15.566 7.15846 15.9766 7.9538 15.9766 8.88164C15.9766 9.83825 15.5955 10.6406 14.8747 11.2016C14.2377 11.6968 13.3503 11.9707 12.375 11.9707H8.52344V7.25789L9.63062 8.36447C9.67939 8.4132 9.7373 8.45182 9.80103 8.47811C9.86477 8.5044 9.93307 8.51784 10.002 8.51766C10.071 8.51748 10.1392 8.50368 10.2028 8.47705C10.2664 8.45043 10.3241 8.4115 10.3726 8.36251C10.5776 8.15552 10.565 7.81856 10.3603 7.61352L10.3603 7.6135L8.37001 5.62413L8.35344 5.6407L8.37 5.62413C8.27185 5.52604 8.13876 5.47093 8 5.47093C7.86124 5.47093 7.72815 5.52604 7.63 5.62413L7.62999 5.62413L5.63968 7.61413C5.44114 7.81267 5.4221 8.13721 5.61236 8.34617C5.65998 8.39863 5.71776 8.44087 5.7822 8.47034C5.84664 8.49981 5.9164 8.51589 5.98725 8.51761C6.05809 8.51932 6.12855 8.50663 6.19434 8.4803C6.26013 8.45398 6.3199 8.41457 6.37001 8.36446L7.47656 7.25791V11.9707H4.25C3.12162 11.9707 2.07034 11.5989 1.29 10.9252C0.473229 10.2183 0.0234375 9.241 0.0234375 8.16914C0.0234375 7.10865 0.441194 6.18038 1.23175 5.48172C1.80454 4.97696 2.55534 4.62016 3.38776 4.45211C3.4678 4.43595 3.54294 4.4013 3.60718 4.35091L14.8019 6.5632ZM14.8019 6.5632L14.7879 6.58203C14.3533 6.25978 13.8188 6.02292 13.2542 5.89513L14.8019 6.5632ZM3.75774 4.162C4.06254 3.52029 4.50983 2.95665 5.06553 2.51405C5.88522 1.86221 6.90032 1.51758 8 1.51758C9.25092 1.51758 10.4308 1.9674 11.3229 2.78486L11.3229 2.78487C12.0904 3.48701 12.6128 4.41388 12.8556 5.49548L3.75774 4.162ZM7.52344 14.0073V12.0176H8.47656V14.0073C8.47656 14.1337 8.42635 14.2549 8.33698 14.3442C8.24761 14.4336 8.12639 14.4838 8 14.4838C7.87361 14.4838 7.75239 14.4336 7.66302 14.3442C7.57365 14.2549 7.52344 14.1337 7.52344 14.0073Z" fill="black" stroke="#112211" stroke-width="0.046875"/>
</svg>
