<svg width="32" height="22" viewBox="0 0 32 22" fill="none" xmlns="http://www.w3.org/2000/svg">
<path d="M1.28 0.951172C0.573216 0.951172 0 1.52423 0 2.23117V19.7672C0 20.4741 0.573504 21.0472 1.28 21.0472H30.72C31.4268 21.0472 32 20.4741 32 19.7672V2.23117C32 1.52426 31.4265 0.951172 30.72 0.951172H1.28ZM19.112 6.94016C19.8908 6.94016 20.515 7.1122 20.913 7.27216L20.641 8.98317L20.461 8.89216C20.0902 8.7322 19.614 8.57824 18.957 8.58916C18.1706 8.58916 17.807 8.93997 17.807 9.2682C17.8024 9.63802 18.2318 9.88192 18.934 10.2472C20.0929 10.8107 20.6286 11.494 20.621 12.3922C20.6054 14.0311 19.2347 15.0902 17.123 15.0902C16.2221 15.0803 15.3542 14.8895 14.885 14.6692L15.167 12.9012L15.426 13.0272C16.0858 13.322 16.513 13.4412 17.317 13.4412C17.8944 13.4412 18.5141 13.1994 18.519 12.6702C18.5228 12.3246 18.26 12.0782 17.478 11.6912C16.716 11.3134 15.7058 10.6807 15.717 9.54618C15.7289 8.01143 17.127 6.94016 19.112 6.94016V6.94016ZM2.82998 7.19117H6.07299C6.5097 7.20768 6.86227 7.34829 6.984 7.82218L7.68301 11.4302C7.6831 11.4305 7.68288 11.4318 7.68301 11.4322L7.89299 12.5132L9.86198 7.19117H11.992L8.82598 14.9812L6.69798 14.9832L5.004 8.69716C6.01194 9.23114 6.87005 9.84896 7.36701 10.6992C7.23888 10.4301 7.07005 10.1265 6.85402 9.82717C6.60243 9.47863 6.0591 9.02861 5.832 8.83716C5.04064 8.17005 3.96592 7.63127 2.80499 7.34618L2.82998 7.19117V7.19117ZM12.839 7.20016H14.922L13.619 14.9782H11.536L12.839 7.20016V7.20016ZM24.604 7.20016H26.182L27.834 14.9782H25.94C25.94 14.9782 25.7521 14.0846 25.691 13.8122C25.3933 13.8122 23.3113 13.8092 23.077 13.8092C22.9977 14.0197 22.647 14.9781 22.647 14.9781H20.504L23.535 7.84618C23.7496 7.33936 24.1154 7.20016 24.604 7.20016V7.20016ZM24.759 9.29216C24.6565 9.58148 24.478 10.0487 24.49 10.0282C24.49 10.0282 23.8488 11.7382 23.681 12.1822L25.366 12.1812C25.2095 11.4395 25.0528 10.6978 24.896 9.95623L24.759 9.29223V9.29216Z" fill="black"/>
</svg>
